<svg xmlns="http://www.w3.org/2000/svg" viewBox="0 0 24 24"><path d="M10,6,9.54,7.85,9.05,6H8.33l.85,2.75v1.88h.71V8.75L10.73,6Zm1.62,1.19a.87.87,0,0,0-.93.91V9.78a.83.83,0,0,0,.93.92.88.88,0,0,0,.92-.92V8.1A.89.89,0,0,0,11.62,7.19Zm.27,2.56c0,.19-.1.32-.27.32a.28.28,0,0,1-.27-.32V8.16c0-.19.08-.32.26-.32s.28.13.28.32Zm1.43,4.47a.26.26,0,0,0-.32-.06l-.12.1v2l.14.12a.27.27,0,0,0,.31,0,.33.33,0,0,0,.05-.22V14.47A.42.42,0,0,0,13.32,14.22Zm.93-7V9.81a.62.62,0,0,1-.37.25c-.14,0-.17-.09-.17-.23V7.22h-.63v2.85c0,.34.1.61.44.61a1,1,0,0,0,.73-.43v.38h.64V7.22Zm1.1,6.92c-.22,0-.27.16-.27.39v.32h.54v-.32C15.62,14.3,15.57,14.14,15.35,14.14Zm0,0c-.22,0-.27.16-.27.39v.32h.54v-.32C15.62,14.3,15.57,14.14,15.35,14.14Zm-2,.08a.26.26,0,0,0-.32-.06l-.12.1v2l.14.12a.27.27,0,0,0,.31,0,.33.33,0,0,0,.05-.22V14.47A.42.42,0,0,0,13.32,14.22Zm0,0a.26.26,0,0,0-.32-.06l-.12.1v2l.14.12a.27.27,0,0,0,.31,0,.33.33,0,0,0,.05-.22V14.47A.42.42,0,0,0,13.32,14.22Zm2-.08c-.22,0-.27.16-.27.39v.32h.54v-.32C15.62,14.3,15.57,14.14,15.35,14.14Zm0,0c-.22,0-.27.16-.27.39v.32h.54v-.32C15.62,14.3,15.57,14.14,15.35,14.14Zm-2,.08a.26.26,0,0,0-.32-.06l-.12.1v2l.14.12a.27.27,0,0,0,.31,0,.33.33,0,0,0,.05-.22V14.47A.42.42,0,0,0,13.32,14.22Zm0,0a.26.26,0,0,0-.32-.06l-.12.1v2l.14.12a.27.27,0,0,0,.31,0,.33.33,0,0,0,.05-.22V14.47A.42.42,0,0,0,13.32,14.22Zm2-.08c-.22,0-.27.16-.27.39v.32h.54v-.32C15.62,14.3,15.57,14.14,15.35,14.14Zm0,0c-.22,0-.27.16-.27.39v.32h.54v-.32C15.62,14.3,15.57,14.14,15.35,14.14Zm-2,.08a.26.26,0,0,0-.32-.06l-.12.1v2l.14.12a.27.27,0,0,0,.31,0,.33.33,0,0,0,.05-.22V14.47A.42.42,0,0,0,13.32,14.22Zm2.1-2.65c-1.3-.09-5.54-.09-6.84,0S7,12.51,7,14.75s.18,3.09,1.58,3.18,5.53.09,6.84,0S17,17,17,14.75,16.83,11.66,15.42,11.57ZM9.25,16.91H8.57V13.14h-.7V12.5H10v.64H9.25Zm2.43,0h-.61v-.36a1.33,1.33,0,0,1-.34.3C10.4,17,10,17,10,16.38V13.66h.61v2.49c0,.13,0,.22.16.22s.28-.15.35-.24V13.66h.61ZM14,16.24c0,.4-.15.71-.56.71a.69.69,0,0,1-.57-.29v.25h-.61V12.5h.61v1.42a.7.7,0,0,1,.54-.3c.44,0,.59.37.59.81Zm2.23-.88H15.08V16c0,.25,0,.46.27.46s.27-.17.27-.46v-.22h.62V16c0,.63-.27,1-.9,1s-.88-.42-.88-1V14.53a.9.9,0,0,1,.92-1c.58,0,.86.37.86,1Zm-.89-1.22c-.22,0-.27.16-.27.39v.32h.54v-.32C15.62,14.3,15.57,14.14,15.35,14.14Zm-2.35,0-.12.1v2l.14.12a.27.27,0,0,0,.31,0,.33.33,0,0,0,.05-.22V14.47a.42.42,0,0,0-.06-.25A.26.26,0,0,0,13,14.16Zm.32.06a.26.26,0,0,0-.32-.06l-.12.1v2l.14.12a.27.27,0,0,0,.31,0,.33.33,0,0,0,.05-.22V14.47A.42.42,0,0,0,13.32,14.22Zm2-.08c-.22,0-.27.16-.27.39v.32h.54v-.32C15.62,14.3,15.57,14.14,15.35,14.14Zm0,0c-.22,0-.27.16-.27.39v.32h.54v-.32C15.62,14.3,15.57,14.14,15.35,14.14Zm-2,.08a.26.26,0,0,0-.32-.06l-.12.1v2l.14.12a.27.27,0,0,0,.31,0,.33.33,0,0,0,.05-.22V14.47A.42.42,0,0,0,13.32,14.22Zm0,0a.26.26,0,0,0-.32-.06l-.12.1v2l.14.12a.27.27,0,0,0,.31,0,.33.33,0,0,0,.05-.22V14.47A.42.42,0,0,0,13.32,14.22Zm2-.08c-.22,0-.27.16-.27.39v.32h.54v-.32C15.62,14.3,15.57,14.14,15.35,14.14Zm0,0c-.22,0-.27.16-.27.39v.32h.54v-.32C15.62,14.3,15.57,14.14,15.35,14.14Zm-2,.08a.26.26,0,0,0-.32-.06l-.12.1v2l.14.12a.27.27,0,0,0,.31,0,.33.33,0,0,0,.05-.22V14.47A.42.42,0,0,0,13.32,14.22ZM10,6,9.54,7.85,9.05,6H8.33l.85,2.75v1.88h.71V8.75L10.73,6Zm1.62,1.19a.87.87,0,0,0-.93.91V9.78a.83.83,0,0,0,.93.92.88.88,0,0,0,.92-.92V8.1A.89.89,0,0,0,11.62,7.19Zm.27,2.56c0,.19-.1.32-.27.32a.28.28,0,0,1-.27-.32V8.16c0-.19.08-.32.26-.32s.28.13.28.32Zm1.43,4.47a.26.26,0,0,0-.32-.06l-.12.1v2l.14.12a.27.27,0,0,0,.31,0,.33.33,0,0,0,.05-.22V14.47A.42.42,0,0,0,13.32,14.22Zm.93-7V9.81a.62.62,0,0,1-.37.25c-.14,0-.17-.09-.17-.23V7.22h-.63v2.85c0,.34.1.61.44.61a1,1,0,0,0,.73-.43v.38h.64V7.22Zm1.1,6.92c-.22,0-.27.16-.27.39v.32h.54v-.32C15.62,14.3,15.57,14.14,15.35,14.14Zm0,0c-.22,0-.27.16-.27.39v.32h.54v-.32C15.62,14.3,15.57,14.14,15.35,14.14Zm-2,.08a.26.26,0,0,0-.32-.06l-.12.1v2l.14.12a.27.27,0,0,0,.31,0,.33.33,0,0,0,.05-.22V14.47A.42.42,0,0,0,13.32,14.22Zm0,0a.26.26,0,0,0-.32-.06l-.12.1v2l.14.12a.27.27,0,0,0,.31,0,.33.33,0,0,0,.05-.22V14.47A.42.42,0,0,0,13.32,14.22Zm2-.08c-.22,0-.27.16-.27.39v.32h.54v-.32C15.62,14.3,15.57,14.14,15.35,14.14Zm0,0c-.22,0-.27.16-.27.39v.32h.54v-.32C15.62,14.3,15.57,14.14,15.35,14.14Zm-2,.08a.26.26,0,0,0-.32-.06l-.12.1v2l.14.12a.27.27,0,0,0,.31,0,.33.33,0,0,0,.05-.22V14.47A.42.42,0,0,0,13.32,14.22Zm0,0a.26.26,0,0,0-.32-.06l-.12.1v2l.14.12a.27.27,0,0,0,.31,0,.33.33,0,0,0,.05-.22V14.47A.42.42,0,0,0,13.32,14.22Zm2-.08c-.22,0-.27.16-.27.39v.32h.54v-.32C15.62,14.3,15.57,14.14,15.35,14.14Zm0,0c-.22,0-.27.16-.27.39v.32h.54v-.32C15.62,14.3,15.57,14.14,15.35,14.14Zm-2,.08a.26.26,0,0,0-.32-.06l-.12.1v2l.14.12a.27.27,0,0,0,.31,0,.33.33,0,0,0,.05-.22V14.47A.42.42,0,0,0,13.32,14.22Zm2.1-2.65c-1.3-.09-5.54-.09-6.84,0S7,12.51,7,14.75s.18,3.09,1.58,3.18,5.53.09,6.84,0S17,17,17,14.75,16.83,11.66,15.42,11.57ZM9.25,16.91H8.57V13.14h-.7V12.5H10v.64H9.25Zm2.43,0h-.61v-.36a1.33,1.33,0,0,1-.34.3C10.4,17,10,17,10,16.38V13.66h.61v2.49c0,.13,0,.22.16.22s.28-.15.35-.24V13.66h.61ZM14,16.24c0,.4-.15.71-.56.71a.69.69,0,0,1-.57-.29v.25h-.61V12.5h.61v1.42a.7.7,0,0,1,.54-.3c.44,0,.59.37.59.81Zm2.23-.88H15.08V16c0,.25,0,.46.27.46s.27-.17.27-.46v-.22h.62V16c0,.63-.27,1-.9,1s-.88-.42-.88-1V14.53a.9.9,0,0,1,.92-1c.58,0,.86.37.86,1Zm-.89-1.22c-.22,0-.27.16-.27.39v.32h.54v-.32C15.62,14.3,15.57,14.14,15.35,14.14Zm-2.35,0-.12.1v2l.14.12a.27.27,0,0,0,.31,0,.33.33,0,0,0,.05-.22V14.47a.42.42,0,0,0-.06-.25A.26.26,0,0,0,13,14.16Zm.32.06a.26.26,0,0,0-.32-.06l-.12.1v2l.14.12a.27.27,0,0,0,.31,0,.33.33,0,0,0,.05-.22V14.47A.42.42,0,0,0,13.32,14.22Zm2-.08c-.22,0-.27.16-.27.39v.32h.54v-.32C15.62,14.3,15.57,14.14,15.35,14.14Zm0,0c-.22,0-.27.16-.27.39v.32h.54v-.32C15.62,14.3,15.57,14.14,15.35,14.14Zm-2,.08a.26.26,0,0,0-.32-.06l-.12.1v2l.14.12a.27.27,0,0,0,.31,0,.33.33,0,0,0,.05-.22V14.47A.42.42,0,0,0,13.32,14.22Zm0,0a.26.26,0,0,0-.32-.06l-.12.1v2l.14.12a.27.27,0,0,0,.31,0,.33.33,0,0,0,.05-.22V14.47A.42.42,0,0,0,13.32,14.22Zm2-.08c-.22,0-.27.16-.27.39v.32h.54v-.32C15.62,14.3,15.57,14.14,15.35,14.14Zm0,0c-.22,0-.27.16-.27.39v.32h.54v-.32C15.62,14.3,15.57,14.14,15.35,14.14Zm-2,.08a.26.26,0,0,0-.32-.06l-.12.1v2l.14.12a.27.27,0,0,0,.31,0,.33.33,0,0,0,.05-.22V14.47A.42.42,0,0,0,13.32,14.22Zm0,0a.26.26,0,0,0-.32-.06l-.12.1v2l.14.12a.27.27,0,0,0,.31,0,.33.33,0,0,0,.05-.22V14.47A.42.42,0,0,0,13.32,14.22Zm2-.08c-.22,0-.27.16-.27.39v.32h.54v-.32C15.62,14.3,15.57,14.14,15.35,14.14Zm0,0c-.22,0-.27.16-.27.39v.32h.54v-.32C15.62,14.3,15.57,14.14,15.35,14.14Zm-2,.08a.26.26,0,0,0-.32-.06l-.12.1v2l.14.12a.27.27,0,0,0,.31,0,.33.33,0,0,0,.05-.22V14.47A.42.42,0,0,0,13.32,14.22Zm0,0a.26.26,0,0,0-.32-.06l-.12.1v2l.14.12a.27.27,0,0,0,.31,0,.33.33,0,0,0,.05-.22V14.47A.42.42,0,0,0,13.32,14.22Zm2-.08c-.22,0-.27.16-.27.39v.32h.54v-.32C15.62,14.3,15.57,14.14,15.35,14.14Zm0,0c-.22,0-.27.16-.27.39v.32h.54v-.32C15.62,14.3,15.57,14.14,15.35,14.14Zm-2,.08a.26.26,0,0,0-.32-.06l-.12.1v2l.14.12a.27.27,0,0,0,.31,0,.33.33,0,0,0,.05-.22V14.47A.42.42,0,0,0,13.32,14.22Zm0,0a.26.26,0,0,0-.32-.06l-.12.1v2l.14.12a.27.27,0,0,0,.31,0,.33.33,0,0,0,.05-.22V14.47A.42.42,0,0,0,13.32,14.22Zm2-.08c-.22,0-.27.16-.27.39v.32h.54v-.32C15.62,14.3,15.57,14.14,15.35,14.14Zm0,0c-.22,0-.27.16-.27.39v.32h.54v-.32C15.62,14.3,15.57,14.14,15.35,14.14Zm-2,.08a.26.26,0,0,0-.32-.06l-.12.1v2l.14.12a.27.27,0,0,0,.31,0,.33.33,0,0,0,.05-.22V14.47A.42.42,0,0,0,13.32,14.22Zm2.1-2.65c-1.3-.09-5.54-.09-6.84,0S7,12.51,7,14.75s.18,3.09,1.58,3.18,5.53.09,6.84,0S17,17,17,14.75,16.83,11.66,15.42,11.57ZM9.25,16.91H8.57V13.14h-.7V12.5H10v.64H9.25Zm2.43,0h-.61v-.36a1.33,1.33,0,0,1-.34.3C10.4,17,10,17,10,16.38V13.66h.61v2.49c0,.13,0,.22.16.22s.28-.15.35-.24V13.66h.61ZM14,16.24c0,.4-.15.71-.56.71a.69.69,0,0,1-.57-.29v.25h-.61V12.5h.61v1.42a.7.7,0,0,1,.54-.3c.44,0,.59.37.59.81Zm2.23-.88H15.08V16c0,.25,0,.46.27.46s.27-.17.27-.46v-.22h.62V16c0,.63-.27,1-.9,1s-.88-.42-.88-1V14.53a.9.9,0,0,1,.92-1c.58,0,.86.37.86,1Zm-.89-1.22c-.22,0-.27.16-.27.39v.32h.54v-.32C15.62,14.3,15.57,14.14,15.35,14.14Zm-2.35,0-.12.1v2l.14.12a.27.27,0,0,0,.31,0,.33.33,0,0,0,.05-.22V14.47a.42.42,0,0,0-.06-.25A.26.26,0,0,0,13,14.16Zm.32.06a.26.26,0,0,0-.32-.06l-.12.1v2l.14.12a.27.27,0,0,0,.31,0,.33.33,0,0,0,.05-.22V14.47A.42.42,0,0,0,13.32,14.22Zm2-.08c-.22,0-.27.16-.27.39v.32h.54v-.32C15.62,14.3,15.57,14.14,15.35,14.14Zm0,0c-.22,0-.27.16-.27.39v.32h.54v-.32C15.62,14.3,15.57,14.14,15.35,14.14Zm-2,.08a.26.26,0,0,0-.32-.06l-.12.1v2l.14.12a.27.27,0,0,0,.31,0,.33.33,0,0,0,.05-.22V14.47A.42.42,0,0,0,13.32,14.22Zm0,0a.26.26,0,0,0-.32-.06l-.12.1v2l.14.12a.27.27,0,0,0,.31,0,.33.33,0,0,0,.05-.22V14.47A.42.42,0,0,0,13.32,14.22Zm2-.08c-.22,0-.27.16-.27.39v.32h.54v-.32C15.62,14.3,15.57,14.14,15.35,14.14Zm0,0c-.22,0-.27.16-.27.39v.32h.54v-.32C15.62,14.3,15.57,14.14,15.35,14.14Zm-2,.08a.26.26,0,0,0-.32-.06l-.12.1v2l.14.12a.27.27,0,0,0,.31,0,.33.33,0,0,0,.05-.22V14.47A.42.42,0,0,0,13.32,14.22Zm0,0a.26.26,0,0,0-.32-.06l-.12.1v2l.14.12a.27.27,0,0,0,.31,0,.33.33,0,0,0,.05-.22V14.47A.42.42,0,0,0,13.32,14.22Zm2-.08c-.22,0-.27.16-.27.39v.32h.54v-.32C15.62,14.3,15.57,14.14,15.35,14.14Zm0,0c-.22,0-.27.16-.27.39v.32h.54v-.32C15.62,14.3,15.57,14.14,15.35,14.14Zm-1.1-6.92V9.81a.62.62,0,0,1-.37.25c-.14,0-.17-.09-.17-.23V7.22h-.63v2.85c0,.34.1.61.44.61a1,1,0,0,0,.73-.43v.38h.64V7.22Zm-.93,7a.26.26,0,0,0-.32-.06l-.12.1v2l.14.12a.27.27,0,0,0,.31,0,.33.33,0,0,0,.05-.22V14.47A.42.42,0,0,0,13.32,14.22Zm-1.7-7a.87.87,0,0,0-.93.91V9.78a.83.83,0,0,0,.93.92.88.88,0,0,0,.92-.92V8.1A.89.89,0,0,0,11.62,7.19Zm.27,2.56c0,.19-.1.32-.27.32a.28.28,0,0,1-.27-.32V8.16c0-.19.08-.32.26-.32s.28.13.28.32ZM10,6,9.54,7.85,9.05,6H8.33l.85,2.75v1.88h.71V8.75L10.73,6Zm3.32,8.22a.26.26,0,0,0-.32-.06l-.12.1v2l.14.12a.27.27,0,0,0,.31,0,.33.33,0,0,0,.05-.22V14.47A.42.42,0,0,0,13.32,14.22Zm2-.08c-.22,0-.27.16-.27.39v.32h.54v-.32C15.62,14.3,15.57,14.14,15.35,14.14Zm0,0c-.22,0-.27.16-.27.39v.32h.54v-.32C15.62,14.3,15.57,14.14,15.35,14.14Zm-2,.08a.26.26,0,0,0-.32-.06l-.12.1v2l.14.12a.27.27,0,0,0,.31,0,.33.33,0,0,0,.05-.22V14.47A.42.42,0,0,0,13.32,14.22Zm0,0a.26.26,0,0,0-.32-.06l-.12.1v2l.14.12a.27.27,0,0,0,.31,0,.33.33,0,0,0,.05-.22V14.47A.42.42,0,0,0,13.32,14.22Zm2-.08c-.22,0-.27.16-.27.39v.32h.54v-.32C15.62,14.3,15.57,14.14,15.35,14.14Zm0,0c-.22,0-.27.16-.27.39v.32h.54v-.32C15.62,14.3,15.57,14.14,15.35,14.14Zm-2,.08a.26.26,0,0,0-.32-.06l-.12.1v2l.14.12a.27.27,0,0,0,.31,0,.33.33,0,0,0,.05-.22V14.47A.42.42,0,0,0,13.32,14.22Zm0,0a.26.26,0,0,0-.32-.06l-.12.1v2l.14.12a.27.27,0,0,0,.31,0,.33.33,0,0,0,.05-.22V14.47A.42.42,0,0,0,13.32,14.22Zm2-.08c-.22,0-.27.16-.27.39v.32h.54v-.32C15.62,14.3,15.57,14.14,15.35,14.14Zm0,0c-.22,0-.27.16-.27.39v.32h.54v-.32C15.62,14.3,15.57,14.14,15.35,14.14Zm-2,.08a.26.26,0,0,0-.32-.06l-.12.1v2l.14.12a.27.27,0,0,0,.31,0,.33.33,0,0,0,.05-.22V14.47A.42.42,0,0,0,13.32,14.22Zm2.1-2.65c-1.3-.09-5.54-.09-6.84,0S7,12.51,7,14.75s.18,3.09,1.58,3.18,5.53.09,6.84,0S17,17,17,14.75,16.83,11.66,15.42,11.57ZM9.25,16.91H8.57V13.14h-.7V12.5H10v.64H9.25Zm2.43,0h-.61v-.36a1.33,1.33,0,0,1-.34.3C10.4,17,10,17,10,16.38V13.66h.61v2.49c0,.13,0,.22.16.22s.28-.15.35-.24V13.66h.61ZM14,16.24c0,.4-.15.71-.56.71a.69.69,0,0,1-.57-.29v.25h-.61V12.5h.61v1.42a.7.7,0,0,1,.54-.3c.44,0,.59.37.59.81Zm2.23-.88H15.08V16c0,.25,0,.46.27.46s.27-.17.27-.46v-.22h.62V16c0,.63-.27,1-.9,1s-.88-.42-.88-1V14.53a.9.9,0,0,1,.92-1c.58,0,.86.37.86,1Zm-.89-1.22c-.22,0-.27.16-.27.39v.32h.54v-.32C15.62,14.3,15.57,14.14,15.35,14.14Zm-2.35,0-.12.1v2l.14.12a.27.27,0,0,0,.31,0,.33.33,0,0,0,.05-.22V14.47a.42.42,0,0,0-.06-.25A.26.26,0,0,0,13,14.16Zm.32.06a.26.26,0,0,0-.32-.06l-.12.1v2l.14.12a.27.27,0,0,0,.31,0,.33.33,0,0,0,.05-.22V14.47A.42.42,0,0,0,13.32,14.22Zm2-.08c-.22,0-.27.16-.27.39v.32h.54v-.32C15.62,14.3,15.57,14.14,15.35,14.14Zm0,0c-.22,0-.27.16-.27.39v.32h.54v-.32C15.62,14.3,15.57,14.14,15.35,14.14Zm-2,.08a.26.26,0,0,0-.32-.06l-.12.1v2l.14.12a.27.27,0,0,0,.31,0,.33.33,0,0,0,.05-.22V14.47A.42.42,0,0,0,13.32,14.22Zm0,0a.26.26,0,0,0-.32-.06l-.12.1v2l.14.12a.27.27,0,0,0,.31,0,.33.33,0,0,0,.05-.22V14.47A.42.42,0,0,0,13.32,14.22Zm2-.08c-.22,0-.27.16-.27.39v.32h.54v-.32C15.62,14.3,15.57,14.14,15.35,14.14Zm0,0c-.22,0-.27.16-.27.39v.32h.54v-.32C15.62,14.3,15.57,14.14,15.35,14.14Zm-2,.08a.26.26,0,0,0-.32-.06l-.12.1v2l.14.12a.27.27,0,0,0,.31,0,.33.33,0,0,0,.05-.22V14.47A.42.42,0,0,0,13.32,14.22Zm0,0a.26.26,0,0,0-.32-.06l-.12.1v2l.14.12a.27.27,0,0,0,.31,0,.33.33,0,0,0,.05-.22V14.47A.42.42,0,0,0,13.32,14.22Zm2-.08c-.22,0-.27.16-.27.39v.32h.54v-.32C15.62,14.3,15.57,14.14,15.35,14.14Zm0,0c-.22,0-.27.16-.27.39v.32h.54v-.32C15.62,14.3,15.57,14.14,15.35,14.14Zm-1.1-6.92V9.81a.62.62,0,0,1-.37.25c-.14,0-.17-.09-.17-.23V7.22h-.63v2.85c0,.34.1.61.44.61a1,1,0,0,0,.73-.43v.38h.64V7.22Zm-.93,7a.26.26,0,0,0-.32-.06l-.12.1v2l.14.12a.27.27,0,0,0,.31,0,.33.33,0,0,0,.05-.22V14.47A.42.42,0,0,0,13.32,14.22Zm-1.7-7a.87.87,0,0,0-.93.91V9.78a.83.83,0,0,0,.93.92.88.88,0,0,0,.92-.92V8.1A.89.89,0,0,0,11.62,7.19Zm.27,2.56c0,.19-.1.32-.27.32a.28.28,0,0,1-.27-.32V8.16c0-.19.08-.32.26-.32s.28.13.28.32ZM10,6,9.54,7.85,9.05,6H8.33l.85,2.75v1.88h.71V8.75L10.73,6Zm5.35,8.14c-.22,0-.27.16-.27.39v.32h.54v-.32C15.62,14.3,15.57,14.14,15.35,14.14Zm-2,.08a.26.26,0,0,0-.32-.06l-.12.1v2l.14.12a.27.27,0,0,0,.31,0,.33.33,0,0,0,.05-.22V14.47A.42.42,0,0,0,13.32,14.22Zm0,0a.26.26,0,0,0-.32-.06l-.12.1v2l.14.12a.27.27,0,0,0,.31,0,.33.33,0,0,0,.05-.22V14.47A.42.42,0,0,0,13.32,14.22Zm2-.08c-.22,0-.27.16-.27.39v.32h.54v-.32C15.62,14.3,15.57,14.14,15.35,14.14Zm0,0c-.22,0-.27.16-.27.39v.32h.54v-.32C15.62,14.3,15.57,14.14,15.35,14.14Zm-2,.08a.26.26,0,0,0-.32-.06l-.12.1v2l.14.12a.27.27,0,0,0,.31,0,.33.33,0,0,0,.05-.22V14.47A.42.42,0,0,0,13.32,14.22Zm0,0a.26.26,0,0,0-.32-.06l-.12.1v2l.14.12a.27.27,0,0,0,.31,0,.33.33,0,0,0,.05-.22V14.47A.42.42,0,0,0,13.32,14.22Zm2-.08c-.22,0-.27.16-.27.39v.32h.54v-.32C15.62,14.3,15.57,14.14,15.35,14.14Zm0,0c-.22,0-.27.16-.27.39v.32h.54v-.32C15.62,14.3,15.57,14.14,15.35,14.14Zm-2,.08a.26.26,0,0,0-.32-.06l-.12.1v2l.14.12a.27.27,0,0,0,.31,0,.33.33,0,0,0,.05-.22V14.47A.42.42,0,0,0,13.32,14.22Zm0,0a.26.26,0,0,0-.32-.06l-.12.1v2l.14.12a.27.27,0,0,0,.31,0,.33.33,0,0,0,.05-.22V14.47A.42.42,0,0,0,13.32,14.22Zm2-.08c-.22,0-.27.16-.27.39v.32h.54v-.32C15.62,14.3,15.57,14.14,15.35,14.14Zm0,0c-.22,0-.27.16-.27.39v.32h.54v-.32C15.62,14.3,15.57,14.14,15.35,14.14Zm-2,.08a.26.26,0,0,0-.32-.06l-.12.1v2l.14.12a.27.27,0,0,0,.31,0,.33.33,0,0,0,.05-.22V14.47A.42.42,0,0,0,13.32,14.22Zm2.1-2.65c-1.3-.09-5.54-.09-6.84,0S7,12.51,7,14.75s.18,3.09,1.58,3.18,5.53.09,6.84,0S17,17,17,14.75,16.83,11.66,15.42,11.57ZM9.25,16.91H8.57V13.14h-.7V12.5H10v.64H9.25Zm2.43,0h-.61v-.36a1.33,1.33,0,0,1-.34.3C10.4,17,10,17,10,16.38V13.66h.61v2.49c0,.13,0,.22.16.22s.28-.15.35-.24V13.66h.61ZM14,16.24c0,.4-.15.71-.56.71a.69.69,0,0,1-.57-.29v.25h-.61V12.5h.61v1.42a.7.7,0,0,1,.54-.3c.44,0,.59.37.59.81Zm2.23-.88H15.08V16c0,.25,0,.46.27.46s.27-.17.27-.46v-.22h.62V16c0,.63-.27,1-.9,1s-.88-.42-.88-1V14.53a.9.9,0,0,1,.92-1c.58,0,.86.37.86,1Zm-.89-1.22c-.22,0-.27.16-.27.39v.32h.54v-.32C15.62,14.3,15.57,14.14,15.35,14.14Zm-2.35,0-.12.1v2l.14.12a.27.27,0,0,0,.31,0,.33.33,0,0,0,.05-.22V14.47a.42.42,0,0,0-.06-.25A.26.26,0,0,0,13,14.16Zm.32.06a.26.26,0,0,0-.32-.06l-.12.1v2l.14.12a.27.27,0,0,0,.31,0,.33.33,0,0,0,.05-.22V14.47A.42.42,0,0,0,13.32,14.22Zm2-.08c-.22,0-.27.16-.27.39v.32h.54v-.32C15.62,14.3,15.57,14.14,15.35,14.14Zm0,0c-.22,0-.27.16-.27.39v.32h.54v-.32C15.62,14.3,15.57,14.14,15.35,14.14Zm-2,.08a.26.26,0,0,0-.32-.06l-.12.1v2l.14.12a.27.27,0,0,0,.31,0,.33.33,0,0,0,.05-.22V14.47A.42.42,0,0,0,13.32,14.22Zm0,0a.26.26,0,0,0-.32-.06l-.12.1v2l.14.12a.27.27,0,0,0,.31,0,.33.33,0,0,0,.05-.22V14.47A.42.42,0,0,0,13.32,14.22Zm2-.08c-.22,0-.27.16-.27.39v.32h.54v-.32C15.62,14.3,15.57,14.14,15.35,14.14Zm0,0c-.22,0-.27.16-.27.39v.32h.54v-.32C15.62,14.3,15.57,14.14,15.35,14.14Zm-2,.08a.26.26,0,0,0-.32-.06l-.12.1v2l.14.12a.27.27,0,0,0,.31,0,.33.33,0,0,0,.05-.22V14.47A.42.42,0,0,0,13.32,14.22Zm0,0a.26.26,0,0,0-.32-.06l-.12.1v2l.14.12a.27.27,0,0,0,.31,0,.33.33,0,0,0,.05-.22V14.47A.42.42,0,0,0,13.32,14.22Zm2-.08c-.22,0-.27.16-.27.39v.32h.54v-.32C15.62,14.3,15.57,14.14,15.35,14.14Zm0,0c-.22,0-.27.16-.27.39v.32h.54v-.32C15.62,14.3,15.57,14.14,15.35,14.14Zm-2,.08a.26.26,0,0,0-.32-.06l-.12.1v2l.14.12a.27.27,0,0,0,.31,0,.33.33,0,0,0,.05-.22V14.47A.42.42,0,0,0,13.32,14.22Zm0,0a.26.26,0,0,0-.32-.06l-.12.1v2l.14.12a.27.27,0,0,0,.31,0,.33.33,0,0,0,.05-.22V14.47A.42.42,0,0,0,13.32,14.22Zm2-.08c-.22,0-.27.16-.27.39v.32h.54v-.32C15.62,14.3,15.57,14.14,15.35,14.14Zm-1.1-6.92V9.81a.62.62,0,0,1-.37.25c-.14,0-.17-.09-.17-.23V7.22h-.63v2.85c0,.34.1.61.44.61a1,1,0,0,0,.73-.43v.38h.64V7.22Zm-2.63,0a.87.87,0,0,0-.93.91V9.78a.83.83,0,0,0,.93.92.88.88,0,0,0,.92-.92V8.1A.89.89,0,0,0,11.62,7.19Zm.27,2.56c0,.19-.1.32-.27.32a.28.28,0,0,1-.27-.32V8.16c0-.19.08-.32.26-.32s.28.13.28.32ZM10,6,9.54,7.85,9.05,6H8.33l.85,2.75v1.88h.71V8.75L10.73,6Z" style="fill:#fff"/><path d="M12,0A12,12,0,1,0,24,12,12,12,0,0,0,12,0Zm0,22A10,10,0,1,1,22,12,10,10,0,0,1,12,22Z" style="fill:#fff"/><path d="M12,2A10,10,0,1,0,22,12,10,10,0,0,0,12,2Zm1.08,5.22h.63V9.83c0,.14,0,.23.17.23a.62.62,0,0,0,.37-.25V7.22h.64v3.41h-.64v-.38a1,1,0,0,1-.73.43c-.34,0-.44-.27-.44-.61Zm-1.46,0a.89.89,0,0,1,.92.91V9.78a.88.88,0,0,1-.92.92.83.83,0,0,1-.93-.92V8.1A.87.87,0,0,1,11.62,7.19ZM9.05,6l.49,1.85L10,6h.73L9.89,8.75v1.88H9.18V8.75L8.33,6Zm6.37,11.93c-1.31.09-5.54.09-6.84,0S7,17,7,14.75s.18-3.09,1.58-3.18,5.54-.09,6.84,0S17,12.52,17,14.75,16.82,17.84,15.42,17.93Z" style="fill:#1a1a1a"/><path d="M16.24,15.36v-.83c0-.59-.28-1-.86-1a.9.9,0,0,0-.92,1V16c0,.59.3,1,.88,1s.9-.38.9-1v-.24h-.62V16c0,.29,0,.46-.27.46s-.27-.21-.27-.46v-.61Zm-1.16-.83c0-.23.05-.39.27-.39s.27.16.27.39v.32h-.54Z" style="fill:#1a1a1a"/><path d="M13.42,13.62a.7.7,0,0,0-.54.3V12.5h-.61v4.41h.61v-.25a.69.69,0,0,0,.57.29c.41,0,.56-.31.56-.71V14.43C14,14,13.86,13.62,13.42,13.62Zm0,2.53a.33.33,0,0,1-.05.22.27.27,0,0,1-.31,0l-.14-.12v-2l.12-.1a.26.26,0,0,1,.32.06.42.42,0,0,1,.06.25Z" style="fill:#1a1a1a"/><path d="M11.68,13.66v3.25h-.61v-.36a1.33,1.33,0,0,1-.34.3C10.4,17,10,17,10,16.38V13.66h.61v2.49c0,.13,0,.22.16.22s.28-.15.35-.24V13.66Z" style="fill:#1a1a1a"/><polygon points="9.96 12.5 9.96 13.14 9.25 13.14 9.25 16.91 8.57 16.91 8.57 13.14 7.87 13.14 7.87 12.5 9.96 12.5" style="fill:#1a1a1a"/><path d="M11.89,8.16V9.75c0,.19-.1.32-.27.32a.28.28,0,0,1-.27-.32V8.16c0-.19.08-.32.26-.32S11.89,8,11.89,8.16Z" style="fill:#1a1a1a"/></svg>