<?xml version="1.0" encoding="utf-8"?>
<!-- Generator: Adobe Illustrator 25.2.1, SVG Export Plug-In . SVG Version: 6.00 Build 0)  -->
<svg version="1.1" id="Layer_1" xmlns="http://www.w3.org/2000/svg" xmlns:xlink="http://www.w3.org/1999/xlink" x="0px" y="0px"
	 viewBox="0 0 24 24" style="enable-background:new 0 0 24 24;" xml:space="preserve">
<style type="text/css">
	.st0{fill:#FFFFFF;}
	.st1{fill:#1A1A1A;}
</style>
<path class="st0" d="M12,0C5.4,0,0,5.4,0,12s5.4,12,12,12s12-5.4,12-12S18.6,0,12,0z M12,22C6.5,22,2,17.5,2,12S6.5,2,12,2
	s10,4.5,10,10S17.5,22,12,22z"/>
<path class="st1" d="M12,2C6.5,2,2,6.5,2,12s4.5,10,10,10s10-4.5,10-10S17.5,2,12,2z M17.4,11.8c-1.2,2.6-4.2,6.2-6,6.2
	s-2.1-3.9-3.1-6.5c-0.5-1.3-0.8-1-1.7-0.3L6,10.4c1.3-1.2,2.7-2.6,3.5-2.6s1.5,0.5,1.7,1.9c0.3,1.8,0.7,4.6,1.4,4.6
	c0.5,0,1.9-2.2,1.9-3c0.1-1.2-0.9-1.2-1.7-0.8C14.2,6.1,19.8,6.9,17.4,11.8z"/>
<path class="st0" d="M17.4,11.8c-1.2,2.6-4.2,6.2-6,6.2s-2.1-3.9-3.1-6.5c-0.5-1.3-0.8-1-1.7-0.3L6,10.4c1.3-1.2,2.7-2.6,3.5-2.6
	s1.5,0.5,1.7,1.9c0.3,1.8,0.7,4.6,1.4,4.6c0.5,0,1.9-2.2,1.9-3c0.1-1.2-0.9-1.2-1.7-0.8C14.2,6.1,19.8,6.9,17.4,11.8z"/>
</svg>
