<?xml version="1.0" encoding="UTF-8"?>
<svg id="uuid-a30ad841-f687-4b86-97fc-c8b795c508a8" data-name="Layer 1" xmlns="http://www.w3.org/2000/svg" viewBox="0 0 24 24">
  <defs>
    <style>
      .uuid-7de04163-3fc7-4e21-a150-022f3aee1268 {
        stroke-width: 0px;
      }
    </style>
  </defs>
  <g id="uuid-091fde8b-ffdd-4333-8dfa-ed5e04d639b5" data-name="Ebene 2">
    <path class="uuid-7de04163-3fc7-4e21-a150-022f3aee1268" d="M16.59,11.05c-.09-.04-.18-.08-.27-.12-.16-2.91-1.75-4.58-4.42-4.59-.01,0-.02,0-.04,0-1.6,0-2.93.68-3.74,1.92l1.47,1.01c.61-.93,1.57-1.12,2.28-1.12,0,0,.02,0,.02,0,.88,0,1.54.26,1.97.76.31.36.52.86.63,1.5-.78-.13-1.62-.17-2.52-.12-2.54.15-4.17,1.63-4.06,3.69.06,1.04.58,1.94,1.46,2.53.75.5,1.72.74,2.72.68,1.33-.07,2.37-.58,3.1-1.51.55-.7.9-1.62,1.06-2.76.63.38,1.1.88,1.36,1.49.44,1.03.47,2.71-.91,4.09-1.21,1.21-2.66,1.73-4.85,1.74-2.43-.02-4.27-.8-5.47-2.32-1.12-1.42-1.7-3.48-1.72-6.11.02-2.63.6-4.69,1.72-6.11,1.2-1.52,3.03-2.3,5.47-2.32,2.45.02,4.32.8,5.56,2.33.61.75,1.07,1.69,1.37,2.79l1.72-.46c-.37-1.35-.94-2.52-1.73-3.48-1.59-1.96-3.92-2.96-6.92-2.98h-.01c-2.99.02-5.29,1.03-6.84,2.99-1.38,1.75-2.09,4.18-2.11,7.23h0s0,.01,0,.01c.02,3.05.73,5.48,2.11,7.23,1.55,1.97,3.85,2.97,6.84,2.99h.01c2.66-.02,4.54-.72,6.08-2.26,2.02-2.02,1.96-4.55,1.29-6.1-.48-1.11-1.39-2.02-2.64-2.62ZM12,15.37c-1.11.06-2.27-.44-2.33-1.51-.04-.79.56-1.68,2.39-1.78.21-.01.42-.02.62-.02.66,0,1.29.06,1.85.19-.21,2.63-1.45,3.06-2.54,3.12Z"/>
  </g>
</svg>