<svg xmlns="http://www.w3.org/2000/svg" viewBox="0 0 24 24"><path d="M12,0A12,12,0,1,0,24,12,12,12,0,0,0,12,0Zm0,22A10,10,0,1,1,22,12,10,10,0,0,1,12,22Z" style="fill:#fff"/><path d="M12,2A10,10,0,1,0,22,12,10,10,0,0,0,12,2Zm5.44,9.84c-1.22,2.61-4.17,6.16-6,6.16S9.3,14.08,8.3,11.48c-.49-1.28-.81-1-1.73-.34L6,10.41C7.35,9.22,8.7,7.85,9.53,7.77s1.51.55,1.72,1.92c.29,1.79.68,4.58,1.38,4.58.54,0,1.87-2.21,1.93-3,.13-1.16-.85-1.19-1.69-.83C14.21,6.06,19.77,6.87,17.44,11.84Z"/><path d="M17.44,11.84c-1.22,2.61-4.17,6.16-6,6.16S9.3,14.08,8.3,11.48c-.49-1.28-.81-1-1.73-.34L6,10.41C7.35,9.22,8.7,7.85,9.53,7.77s1.51.55,1.72,1.92c.29,1.79.68,4.58,1.38,4.58.54,0,1.87-2.21,1.93-3,.13-1.16-.85-1.19-1.69-.83C14.21,6.06,19.77,6.87,17.44,11.84Z" style="fill:#fff"/></svg>