<?xml version="1.0" encoding="utf-8"?>
<!-- Generator: Adobe Illustrator 25.2.1, SVG Export Plug-In . SVG Version: 6.00 Build 0)  -->
<svg version="1.1" id="Layer_1" xmlns="http://www.w3.org/2000/svg" xmlns:xlink="http://www.w3.org/1999/xlink" x="0px" y="0px"
	 viewBox="0 0 24 24" style="enable-background:new 0 0 24 24;" xml:space="preserve">
<style type="text/css">
	.st0{fill:#FFFFFF;}
	.st1{fill:#1A1A1A;}
</style>
<path class="st0" d="M17.1,9.2c0.5-0.3,0.9-0.8,1.1-1.4c-0.5,0.3-1,0.5-1.6,0.6c-0.5-0.5-1.1-0.8-1.8-0.8c-1.6,0-2.8,1.5-2.4,3
	c-2-0.1-3.9-1.1-5.1-2.6C6.7,9.2,7,10.6,8.1,11.4c-0.4,0-0.8-0.1-1.1-0.3c0,1.1,0.8,2.2,2,2.5c-0.4,0.1-0.7,0.1-1.1,0
	c0.3,1,1.2,1.7,2.3,1.7c-1,0.8-2.3,1.2-3.7,1c1.1,0.7,2.4,1.1,3.8,1.1c4.6,0,7.2-3.9,7-7.3c0.5-0.3,0.9-0.8,1.2-1.3
	C18.1,9,17.6,9.1,17.1,9.2z M17.1,9.2c0.5-0.3,0.9-0.8,1.1-1.4c-0.5,0.3-1,0.5-1.6,0.6c-0.5-0.5-1.1-0.8-1.8-0.8
	c-1.6,0-2.8,1.5-2.4,3c-2-0.1-3.9-1.1-5.1-2.6C6.7,9.2,7,10.6,8.1,11.4c-0.4,0-0.8-0.1-1.1-0.3c0,1.1,0.8,2.2,2,2.5
	c-0.4,0.1-0.7,0.1-1.1,0c0.3,1,1.2,1.7,2.3,1.7c-1,0.8-2.3,1.2-3.7,1c1.1,0.7,2.4,1.1,3.8,1.1c4.6,0,7.2-3.9,7-7.3
	c0.5-0.3,0.9-0.8,1.2-1.3C18.1,9,17.6,9.1,17.1,9.2z M17.1,9.2c0.5-0.3,0.9-0.8,1.1-1.4c-0.5,0.3-1,0.5-1.6,0.6
	c-0.5-0.5-1.1-0.8-1.8-0.8c-1.6,0-2.8,1.5-2.4,3c-2-0.1-3.9-1.1-5.1-2.6C6.7,9.2,7,10.6,8.1,11.4c-0.4,0-0.8-0.1-1.1-0.3
	c0,1.1,0.8,2.2,2,2.5c-0.4,0.1-0.7,0.1-1.1,0c0.3,1,1.2,1.7,2.3,1.7c-1,0.8-2.3,1.2-3.7,1c1.1,0.7,2.4,1.1,3.8,1.1
	c4.6,0,7.2-3.9,7-7.3c0.5-0.3,0.9-0.8,1.2-1.3C18.1,9,17.6,9.1,17.1,9.2z M12,0C5.4,0,0,5.4,0,12s5.4,12,12,12s12-5.4,12-12
	S18.6,0,12,0z M12,22C6.5,22,2,17.5,2,12S6.5,2,12,2s10,4.5,10,10S17.5,22,12,22z M18.2,7.8c-0.5,0.3-1,0.5-1.6,0.6
	c-0.5-0.5-1.1-0.8-1.8-0.8c-1.6,0-2.8,1.5-2.4,3c-2-0.1-3.9-1.1-5.1-2.6C6.7,9.2,7,10.6,8.1,11.4c-0.4,0-0.8-0.1-1.1-0.3
	c0,1.1,0.8,2.2,2,2.5c-0.4,0.1-0.7,0.1-1.1,0c0.3,1,1.2,1.7,2.3,1.7c-1,0.8-2.3,1.2-3.7,1c1.1,0.7,2.4,1.1,3.8,1.1
	c4.6,0,7.2-3.9,7-7.3c0.5-0.3,0.9-0.8,1.2-1.3c-0.4,0.2-0.9,0.3-1.4,0.4C17.6,8.9,18,8.4,18.2,7.8z M17.1,9.2
	c0.5-0.3,0.9-0.8,1.1-1.4c-0.5,0.3-1,0.5-1.6,0.6c-0.5-0.5-1.1-0.8-1.8-0.8c-1.6,0-2.8,1.5-2.4,3c-2-0.1-3.9-1.1-5.1-2.6
	C6.7,9.2,7,10.6,8.1,11.4c-0.4,0-0.8-0.1-1.1-0.3c0,1.1,0.8,2.2,2,2.5c-0.4,0.1-0.7,0.1-1.1,0c0.3,1,1.2,1.7,2.3,1.7
	c-1,0.8-2.3,1.2-3.7,1c1.1,0.7,2.4,1.1,3.8,1.1c4.6,0,7.2-3.9,7-7.3c0.5-0.3,0.9-0.8,1.2-1.3C18.1,9,17.6,9.1,17.1,9.2z M17.1,9.2
	c0.5-0.3,0.9-0.8,1.1-1.4c-0.5,0.3-1,0.5-1.6,0.6c-0.5-0.5-1.1-0.8-1.8-0.8c-1.6,0-2.8,1.5-2.4,3c-2-0.1-3.9-1.1-5.1-2.6
	C6.7,9.2,7,10.6,8.1,11.4c-0.4,0-0.8-0.1-1.1-0.3c0,1.1,0.8,2.2,2,2.5c-0.4,0.1-0.7,0.1-1.1,0c0.3,1,1.2,1.7,2.3,1.7
	c-1,0.8-2.3,1.2-3.7,1c1.1,0.7,2.4,1.1,3.8,1.1c4.6,0,7.2-3.9,7-7.3c0.5-0.3,0.9-0.8,1.2-1.3C18.1,9,17.6,9.1,17.1,9.2z M17.1,9.2
	c0.5-0.3,0.9-0.8,1.1-1.4c-0.5,0.3-1,0.5-1.6,0.6c-0.5-0.5-1.1-0.8-1.8-0.8c-1.6,0-2.8,1.5-2.4,3c-2-0.1-3.9-1.1-5.1-2.6
	C6.7,9.2,7,10.6,8.1,11.4c-0.4,0-0.8-0.1-1.1-0.3c0,1.1,0.8,2.2,2,2.5c-0.4,0.1-0.7,0.1-1.1,0c0.3,1,1.2,1.7,2.3,1.7
	c-1,0.8-2.3,1.2-3.7,1c1.1,0.7,2.4,1.1,3.8,1.1c4.6,0,7.2-3.9,7-7.3c0.5-0.3,0.9-0.8,1.2-1.3C18.1,9,17.6,9.1,17.1,9.2z"/>
<path class="st1" d="M12,2C6.5,2,2,6.5,2,12s4.5,10,10,10s10-4.5,10-10S17.5,2,12,2z M17.3,10c0.2,3.5-2.4,7.3-7,7.3
	c-1.4,0-2.7-0.4-3.8-1.1c1.3,0.1,2.6-0.2,3.7-1c-1.1,0-2-0.7-2.3-1.7c0.4,0.1,0.8,0.1,1.1,0c-1.2-0.2-2-1.3-2-2.5
	c0.3,0.2,0.7,0.3,1.1,0.3C7,10.6,6.7,9.2,7.3,8.1c1.2,1.5,3,2.5,5.1,2.6c-0.4-1.5,0.8-3,2.4-3c0.7,0,1.3,0.3,1.8,0.8
	c0.6-0.1,1.1-0.3,1.6-0.6c-0.2,0.6-0.6,1.1-1.1,1.4c0.5-0.1,1-0.2,1.4-0.4C18.2,9.3,17.8,9.7,17.3,10z"/>
</svg>
