<svg xmlns="http://www.w3.org/2000/svg" viewBox="0 0 4040 864"><path d="M1656.45,454.28l439.36-250.83a2,2,0,0,1,1.94,0l176.7,97.19a2,2,0,0,1,.45,3.15L2085,493.71A2,2,0,0,0,2087,497l323.86-113.79a2,2,0,0,1,1.69.17L2456,409.45a2,2,0,0,1,.92,1.29A258.08,258.08,0,0,1,2430,589.41a1.89,1.89,0,0,1-.75.76L1978.63,846.56a2,2,0,0,1-1.47.2,425.23,425.23,0,0,1-105.35-42.39,2,2,0,0,1,0-3.45l363.26-211.45a2,2,0,0,0-1.58-3.63L1772.92,725.55a2,2,0,0,1-2-.53,428.38,428.38,0,0,1-73.54-106.83,2,2,0,0,1,.4-2.29l141.71-137.84a2,2,0,0,0-1.88-3.38l-172.12,42.76a2,2,0,0,1-2.43-1.53c-2.1-10.53-4-21.89-5.37-34-1.05-9-1.76-17.59-2.21-25.78A2,2,0,0,1,1656.45,454.28Z" style="fill:#e87108"/><path d="M1686.45,486.31a403.48,403.48,0,0,1-3.67-54.41c0-220.92,179.08-400,400-400s400,179.08,400,400-179.09,400-400,400a399.88,399.88,0,0,1-112.9-16.16" style="fill:none;stroke:#e87108;stroke-miterlimit:10;stroke-width:56px"/><path d="M2701,556.85a94.77,94.77,0,0,0,14.11-2.27v38.81q-15.12,3.52-39.31,3.53-29.74,0-50.4-15.37t-20.67-64.76V398.35h-41.83v-36.8h41.83V288h43.85v73.58H2707v36.8h-58.47V507.21q0,30.75,9.07,40.57t28.23,9.83Q2692.9,557.61,2701,556.85Z" style="fill:#1a1a1a"/><path d="M2932,379.7Q2954,403.9,2954,450.76V593.9h-43.85v-124q0-39.32-13.86-58t-44.6-18.64q-31.76,0-48.64,20.91t-16.88,56.7v123h-43.85V241.1h43.85V404.39a76.26,76.26,0,0,1,30.49-35.78q20.91-13.1,50.65-13.1Q2910.12,355.51,2932,379.7Z" style="fill:#1a1a1a"/><path d="M3197.4,490.58H3017.47q.5,33.26,20.16,52.16t52.92,18.9q23.17,0,38.81-8.82A51.57,51.57,0,0,0,3152,527.37h43.85q-6.06,32.26-35.28,52.42T3090.55,600q-53.43,0-84.92-33t-31.5-89.46q0-36.29,14.11-64t40.07-42.84q26-15.12,60.22-15.12,32.25,0,57.21,13.86a98.08,98.08,0,0,1,38.81,38.8q13.85,25,13.86,56.7Q3198.41,480,3197.4,490.58Zm-41.83-33.77q0-30.74-17.9-48.38T3088,390.79q-31.26,0-50.15,18.14t-20.41,47.88Z" style="fill:#1a1a1a"/><path d="M3272,584.07a101.25,101.25,0,0,1-39.56-43.6q-13.36-27.71-13.36-62.49,0-34.28,14.12-62.25a107.66,107.66,0,0,1,40.31-44.1q26.2-16.12,61.49-16.12,27.23,0,48.89,12.85a84.18,84.18,0,0,1,32.76,34.52V361.55H3460V593.9h-43.34V553.07q-11.08,21.18-33.77,34A97.53,97.53,0,0,1,3334,600Q3298.19,600,3272,584.07ZM3397.74,537q20.91-23.69,20.92-59t-20.92-59.22q-20.92-23.94-57.71-23.94-35.28,0-56.45,23.43T3262.42,478q0,36.28,21.16,59.47T3340,560.63Q3376.83,560.63,3397.74,537Z" style="fill:#1a1a1a"/><path d="M3621.76,556.85a95.14,95.14,0,0,0,14.12-2.27v38.81q-15.14,3.52-39.32,3.53-29.74,0-50.4-15.37t-20.66-64.76V398.35h-41.83v-36.8h41.83V288h43.85v73.58h58.46v36.8h-58.46V507.21q0,30.75,9.07,40.57t28.22,9.83Q3613.69,557.61,3621.76,556.85Z" style="fill:#1a1a1a"/><path d="M3872.25,490.58H3692.32q.49,33.26,20.16,52.16t52.92,18.9q23.17,0,38.81-8.82a51.57,51.57,0,0,0,22.68-25.45h43.84q-6,32.26-35.28,52.42t-70,20.16q-53.43,0-84.93-33T3649,477.47q0-36.29,14.12-64t40.06-42.84q26-15.12,60.23-15.12,32.25,0,57.21,13.86a98,98,0,0,1,38.8,38.8q13.86,25,13.86,56.7Q3873.25,480,3872.25,490.58Zm-41.84-33.77q0-30.74-17.89-48.38t-49.64-17.64q-31.26,0-50.15,18.14t-20.41,47.88Z" style="fill:#1a1a1a"/><path d="M3904,593.9V361.55h43.84v52.92q6.55-27.71,25.46-42.08A68.55,68.55,0,0,1,4015.88,358q13.62,0,21.17,2v40.32q-7.56-1.51-21.67-1.51-32.76,0-50.15,26.21t-17.39,67.53V593.9Z" style="fill:#1a1a1a"/><path d="M41.58,593.9V361.55H85.42v42.34a72.09,72.09,0,0,1,25.2-34.52q18.15-13.86,44.36-13.86,29.73,0,48.63,13.1t25.45,36.79q8.06-21.66,28.48-35.78t46.62-14.11q44.34,0,64,24.69t19.65,66.53V593.9H344V455.3q0-62-50.4-62-26.73,0-41.84,19.4t-15.12,60.23v121H192.78V458.83q0-65.52-49.9-65.52-27.72,0-42.59,19.9T85.42,472.94v121Z" style="fill:#1a1a1a"/><path d="M470.72,583.82a108.46,108.46,0,0,1-42.08-44.1Q414,511.75,414,478q0-34.28,14.62-62.25a108.58,108.58,0,0,1,42.08-44.1q27.46-16.12,64.26-16.12t64.26,16.12a108.67,108.67,0,0,1,42.09,44.1q14.61,28,14.61,62.25,0,33.76-14.86,61.74A110.73,110.73,0,0,1,599,583.82Q571.78,599.95,535,600T470.72,583.82ZM591.43,537.2Q612.1,513.76,612.1,478q0-36.28-20.67-59.73T535,394.82q-35.79,0-56.7,23.43T457.37,478q0,35.79,20.91,59.22T535,560.63Q570.77,560.63,591.43,537.2Z" style="fill:#1a1a1a"/><path d="M682.15,593.9V361.55H726v42.84a76.26,76.26,0,0,1,30.49-35.78q20.91-13.1,50.65-13.1,42.35,0,64.26,24.19t21.92,71.06V593.9H850v-124q0-39.32-13.86-58t-44.6-18.64q-31.75,0-48.64,20.91T726,470.92v123Z" style="fill:#1a1a1a"/><path d="M966.15,590.12q-21.93-9.82-34.27-27.22a65,65,0,0,1-12.35-38.55h43.34q0,17.64,15.12,29t40.32,11.33q19.67,0,31.25-9.07t11.59-24.19q0-12.58-7.56-20.41t-27.21-12.85L979,486q-25.69-7.05-39.06-23.43T926.59,422q0-29.22,24.44-47.88t62.24-18.64q41.32,0,65.27,18.64t23.94,51.41h-42.84q0-16.63-12.6-26.46t-35.28-9.83q-18.64,0-30.24,8.32T969.93,420a26.31,26.31,0,0,0,7.81,19.4q7.82,7.81,26,12.85l47.88,13.11q25.7,7.06,39.81,23.69t14.12,40.82q0,32.76-24.2,51.41T1015.79,600Q988.07,600,966.15,590.12Z" style="fill:#1a1a1a"/><path d="M1153.63,575.5q-23.94-24.43-23.94-70.81V361.55h43.85V494.61q0,67.54,56.45,67.54,33.27,0,49.64-21.17T1296,488.56v-127h43.85V593.9H1296V551.56a77.57,77.57,0,0,1-30,35.28q-20.41,13.1-48.14,13.11Q1177.57,600,1153.63,575.5Z" style="fill:#1a1a1a"/><path d="M1383.2,593.9V361.55h43.85v42.84a76.32,76.32,0,0,1,30.49-35.78q20.91-13.1,50.66-13.1,42.33,0,64.26,24.19t21.92,71.06V593.9H1551v-124q0-39.32-13.86-58t-44.61-18.64q-31.75,0-48.63,20.91t-16.89,56.7v123Z" style="fill:#1a1a1a"/></svg>