<?xml version="1.0" encoding="utf-8"?>
<!-- Generator: Adobe Illustrator 27.4.1, SVG Export Plug-In . SVG Version: 6.00 Build 0)  -->
<svg version="1.1" id="Layer_1" xmlns="http://www.w3.org/2000/svg" xmlns:xlink="http://www.w3.org/1999/xlink" x="0px" y="0px"
	 viewBox="0 0 4040 864" style="enable-background:new 0 0 4040 864;" xml:space="preserve">
<style type="text/css">
	.st0{fill:#E87108;}
	.st1{fill:none;stroke:#E87108;stroke-width:56;stroke-miterlimit:10;}
	.st2{fill:#1A1A1A;}
</style>
<path class="st0" d="M1656.4,454.3l439.4-250.8c0.6-0.3,1.3-0.3,1.9,0l176.7,97.2c1,0.5,1.3,1.8,0.8,2.7c-0.1,0.2-0.2,0.3-0.3,0.4
	L2085,493.7c-0.8,0.8-0.7,2.1,0.1,2.8c0.5,0.5,1.2,0.7,1.9,0.5l323.9-113.8c0.6-0.2,1.2-0.1,1.7,0.2l43.5,26.1
	c0.5,0.3,0.8,0.8,0.9,1.3c12.8,60.9,3.3,124.3-26.9,178.7c-0.2,0.3-0.4,0.6-0.8,0.8l-450.6,256.4c-0.4,0.3-1,0.3-1.5,0.2
	c-36.9-9.4-72.3-23.6-105.3-42.4c-1-0.6-1.3-1.8-0.7-2.7c0.2-0.3,0.4-0.5,0.7-0.7l363.3-211.5c0.9-0.6,1.2-1.8,0.6-2.8
	c-0.5-0.8-1.4-1.1-2.2-0.9l-460.6,139.7c-0.7,0.2-1.5,0-2-0.5c-29.8-31.7-54.6-67.7-73.5-106.8c-0.4-0.8-0.2-1.7,0.4-2.3
	l141.7-137.8c0.8-0.8,0.8-2,0.1-2.8c-0.5-0.5-1.2-0.7-1.9-0.6l-172.1,42.8c-1.1,0.3-2.2-0.4-2.4-1.5c0,0,0,0,0-0.1
	c-2.1-10.5-4-21.9-5.4-34c-1.1-9-1.8-17.6-2.2-25.8C1655.4,455.4,1655.8,454.7,1656.4,454.3z"/>
<path class="st1" d="M1686.4,486.3c-2.4-18-3.7-36.2-3.7-54.4c0-220.9,179.1-400,400-400s400,179.1,400,400s-179.1,400-400,400
	c-38.2,0-76.2-5.4-112.9-16.2"/>
<path class="st2" d="M2701,556.8c4.8-0.4,9.5-1.2,14.1-2.3v38.8c-10.1,2.3-23.2,3.5-39.3,3.5c-19.8,0-36.6-5.1-50.4-15.4
	c-13.8-10.2-20.7-31.8-20.7-64.8V398.4h-41.8v-36.8h41.8V288h43.9v73.6h58.4v36.8h-58.5v108.8c0,20.5,3,34,9.1,40.6
	c6,6.5,15.5,9.8,28.2,9.8C2690.5,557.6,2695.6,557.4,2701,556.8z"/>
<path class="st2" d="M2932,379.7c14.7,16.1,22,39.8,22,71.1v143.1h-43.9v-124c0-26.2-4.6-45.5-13.9-58
	c-9.2-12.5-24.1-18.7-44.6-18.6c-21.2,0-37.4,7-48.6,20.9s-16.9,32.8-16.9,56.7v123h-43.9V241.1h43.9v163.3
	c6.1-14.8,16.8-27.4,30.5-35.8c13.9-8.7,30.8-13.1,50.6-13.1C2895.8,355.5,2917.4,363.6,2932,379.7z"/>
<path class="st2" d="M3197.4,490.6h-179.9c0.3,22.2,7.1,39.6,20.2,52.2s30.7,18.9,52.9,18.9c15.4,0,28.4-2.9,38.8-8.8
	c10.2-5.7,18.2-14.6,22.6-25.5h43.9c-4,21.5-15.8,39-35.3,52.4c-19.5,13.4-42.8,20.2-70,20.2c-35.6,0-63.9-11-84.9-33
	c-21-22-31.5-51.8-31.5-89.5c0-24.2,4.7-45.5,14.1-64s22.8-32.8,40.1-42.8c17.3-10.1,37.4-15.1,60.2-15.1c21.5,0,40.6,4.6,57.2,13.9
	c16.4,9,29.8,22.4,38.8,38.8c9.2,16.7,13.9,35.6,13.9,56.7C3198.4,475,3198.1,483.5,3197.4,490.6z M3155.6,456.8
	c0-20.5-6-36.6-17.9-48.4c-11.9-11.8-28.5-17.6-49.7-17.6c-20.8,0-37.6,6-50.1,18.1s-19.4,28.1-20.4,47.9H3155.6z"/>
<path class="st2" d="M3272,584.1c-17.2-10.3-31-25.5-39.6-43.6c-8.9-18.5-13.4-39.3-13.4-62.5c0-22.9,4.7-43.6,14.1-62.2
	c9-18.2,23-33.5,40.3-44.1c17.5-10.7,38-16.1,61.5-16.1c18.2,0,34.4,4.3,48.9,12.9c14,8.1,25.4,20.1,32.8,34.5v-41.3h43.4v232.4
	h-43.3v-40.8c-7.4,14.1-18.6,25.5-33.8,34c-14.9,8.5-31.7,13-48.9,12.9C3310.1,600,3289.5,594.7,3272,584.1z M3397.7,537
	c13.9-15.8,20.9-35.5,20.9-59c0-23.5-7-43.3-20.9-59.2c-13.9-16-33.2-23.9-57.7-23.9c-23.5,0-42.3,7.8-56.4,23.4
	s-21.2,35.5-21.2,59.7c0,24.2,7.1,44,21.2,59.5c14.1,15.5,32.9,23.2,56.4,23.2C3364.6,560.6,3383.8,552.8,3397.7,537z"/>
<path class="st2" d="M3621.8,556.8c4.8-0.4,9.5-1.2,14.1-2.3v38.8c-10.1,2.3-23.2,3.5-39.3,3.5c-19.8,0-36.6-5.1-50.4-15.4
	c-13.8-10.2-20.7-31.8-20.7-64.8V398.4h-41.8v-36.8h41.8V288h43.9v73.6h58.5v36.8h-58.5v108.8c0,20.5,3,34,9.1,40.6
	c6,6.5,15.5,9.8,28.2,9.8C3611.3,557.6,3616.4,557.4,3621.8,556.8z"/>
<path class="st2" d="M3872.2,490.6h-179.9c0.3,22.2,7,39.6,20.2,52.2c13.1,12.6,30.8,18.9,52.9,18.9c15.4,0,28.4-2.9,38.8-8.8
	c10.2-5.7,18.2-14.6,22.7-25.5h43.8c-4,21.5-15.8,39-35.3,52.4c-19.5,13.4-42.9,20.2-70,20.2c-35.6,0-63.9-11-84.9-33
	c-21-22-31.5-51.8-31.5-89.5c0-24.2,4.7-45.5,14.1-64s22.8-32.8,40.1-42.8c17.3-10.1,37.4-15.1,60.2-15.1c21.5,0,40.6,4.6,57.2,13.9
	c16.4,9,29.8,22.4,38.8,38.8c9.2,16.7,13.9,35.6,13.9,56.7C3873.3,475,3872.9,483.5,3872.2,490.6z M3830.4,456.8
	c0-20.5-6-36.6-17.9-48.4c-11.9-11.8-28.5-17.6-49.6-17.6c-20.8,0-37.6,6-50.1,18.1c-12.6,12.1-19.4,28.1-20.4,47.9H3830.4z"/>
<path class="st2" d="M3904,593.9V361.5h43.8v52.9c4.4-18.5,12.9-32.5,25.5-42.1c12.2-9.4,27.2-14.5,42.6-14.4c9.1,0,16.1,0.7,21.2,2
	v40.3c-5-1-12.3-1.5-21.7-1.5c-21.8,0-38.6,8.7-50.1,26.2s-17.4,40-17.4,67.5v101.4H3904z"/>
<path class="st2" d="M41.6,593.9V361.5h43.8v42.3c4.7-13.8,13.5-25.8,25.2-34.5c12.1-9.2,26.9-13.9,44.4-13.9
	c19.8,0,36,4.4,48.6,13.1s21.1,21,25.4,36.8c5.4-14.4,14.9-26.4,28.5-35.8c13.6-9.4,29.2-14.1,46.6-14.1c29.6,0,50.9,8.2,64,24.7
	c13.1,16.5,19.7,38.6,19.6,66.5v147.2H344V455.3c0-41.3-16.8-62-50.4-62c-17.8,0-31.8,6.5-41.8,19.4c-10.1,12.9-15.1,33-15.1,60.2
	v121h-43.9V458.8c0-43.7-16.6-65.5-49.9-65.5c-18.5,0-32.7,6.6-42.6,19.9s-14.9,33.2-14.9,59.7v121L41.6,593.9z"/>
<path class="st2" d="M470.7,583.8c-18-10.4-32.6-25.7-42.1-44.1c-9.8-18.6-14.6-39.2-14.6-61.7c0-22.9,4.9-43.6,14.6-62.2
	c9.5-18.4,24.1-33.7,42.1-44.1c18.3-10.7,39.7-16.1,64.3-16.1c24.5,0,46,5.4,64.3,16.1c18,10.4,32.6,25.7,42.1,44.1
	c9.7,18.7,14.6,39.4,14.6,62.2c0,22.5-5,43.1-14.9,61.7c-9.6,18.3-24.2,33.6-42.1,44.1c-18.1,10.8-39.5,16.1-64,16.2
	S489.1,594.6,470.7,583.8z M591.4,537.2c13.8-15.6,20.7-35.4,20.7-59.2c0-24.2-6.9-44.1-20.7-59.7c-13.8-15.6-32.6-23.5-56.4-23.4
	c-23.9,0-42.8,7.8-56.7,23.4s-20.9,35.5-20.9,59.8c0,23.9,7,43.6,20.9,59.2s32.8,23.4,56.7,23.4
	C558.8,560.6,577.7,552.8,591.4,537.2z"/>
<path class="st2" d="M682.2,593.9V361.5H726v42.8c6.1-14.8,16.8-27.4,30.5-35.8c13.9-8.7,30.8-13.1,50.7-13.1
	c28.2,0,49.7,8.1,64.3,24.2c14.6,16.1,21.9,39.8,21.9,71.1v143.1H850v-124c0-26.2-4.6-45.5-13.9-58c-9.2-12.5-24.1-18.7-44.6-18.6
	c-21.2,0-37.4,7-48.6,20.9C731.6,428.1,726,447,726,470.9v123L682.2,593.9z"/>
<path class="st2" d="M966.2,590.1c-14.6-6.5-26-15.6-34.3-27.2c-8.1-11.2-12.4-24.7-12.3-38.5h43.3c0,11.8,5,21.4,15.1,29
	c10.1,7.6,23.5,11.3,40.3,11.3c13.1,0,23.5-3,31.2-9.1c7.7-6,11.6-14.1,11.6-24.2c0-8.4-2.5-15.2-7.6-20.4s-14.1-9.5-27.2-12.9
	L979,486c-17.1-4.7-30.1-12.5-39.1-23.4c-8.9-10.9-13.4-24.4-13.3-40.6c0-19.5,8.1-35.4,24.4-47.9s37-18.7,62.2-18.6
	c27.5,0,49.3,6.2,65.3,18.6s23.9,29.6,23.9,51.4h-42.8c0-11.1-4.2-19.9-12.6-26.5s-20.2-9.8-35.3-9.8c-12.4,0-22.5,2.8-30.2,8.3
	c-7.7,5.5-11.6,13-11.6,22.4c-0.2,7.3,2.6,14.3,7.8,19.4c5.2,5.2,13.9,9.5,26,12.9l47.9,13.1c17.1,4.7,30.4,12.6,39.8,23.7
	c9.4,11.1,14.1,24.7,14.1,40.8c0,21.8-8.1,39-24.2,51.4c-16.1,12.4-38,18.7-65.6,18.7C997.3,600,980.8,596.7,966.2,590.1z"/>
<path class="st2" d="M1153.6,575.5c-16-16.3-23.9-39.9-23.9-70.8V361.5h43.8v133.1c0,45,18.8,67.5,56.4,67.5
	c22.2,0,38.7-7.1,49.6-21.2s16.4-31.6,16.4-52.4v-127h43.8v232.3H1296v-42.3c-6.2,14.5-16.6,26.8-30,35.3
	c-13.6,8.7-29.7,13.1-48.1,13.1C1191,600,1169.6,591.8,1153.6,575.5z"/>
<path class="st2" d="M1383.2,593.9V361.5h43.8v42.8c6.1-14.8,16.8-27.4,30.5-35.8c13.9-8.7,30.8-13.1,50.7-13.1
	c28.2,0,49.6,8.1,64.3,24.2c14.6,16.1,21.9,39.8,21.9,71.1v143.1H1551v-124c0-26.2-4.6-45.5-13.9-58s-24.1-18.7-44.6-18.6
	c-21.2,0-37.4,7-48.6,20.9c-11.3,13.9-16.9,32.8-16.9,56.7v123L1383.2,593.9z"/>
</svg>
