<svg xmlns="http://www.w3.org/2000/svg" viewBox="0 0 864 864"><path d="M6.68,454.28,446,203.45a2,2,0,0,1,2,0l176.7,97.19a2,2,0,0,1,.44,3.15L435.18,493.71a2,2,0,0,0,2.07,3.29L761.12,383.21a2,2,0,0,1,1.68.17l43.45,26.07a2,2,0,0,1,.93,1.29,258.23,258.23,0,0,1-26.91,178.67,2,2,0,0,1-.76.76L328.85,846.56a2,2,0,0,1-1.47.2A425.63,425.63,0,0,1,222,804.37a2,2,0,0,1,0-3.45L585.28,589.47a2,2,0,0,0-1.58-3.63L123.14,725.55a2,2,0,0,1-2-.53A428.83,428.83,0,0,1,47.57,618.19,2,2,0,0,1,48,615.9L189.69,478.06a2,2,0,0,0-1.88-3.38L15.69,517.44a2,2,0,0,1-2.44-1.53c-2.1-10.53-3.95-21.89-5.37-34-1-9-1.76-17.59-2.21-25.78A2,2,0,0,1,6.68,454.28Z" style="fill:#e87108"/><path d="M36.67,486.31A403.48,403.48,0,0,1,33,431.9C33,211,212.08,31.9,433,31.9S833,211,833,431.9s-179.09,400-400,400a399.81,399.81,0,0,1-112.89-16.16" style="fill:none;stroke:#e87108;stroke-miterlimit:10;stroke-width:56px"/></svg>