<svg xmlns="http://www.w3.org/2000/svg" viewBox="0 0 4040 864"><path d="M1656.45,454.28l439.36-250.83a2,2,0,0,1,1.94,0l176.7,97.19a2,2,0,0,1,.45,3.15L2085,493.71A2,2,0,0,0,2087,497l323.86-113.79a2,2,0,0,1,1.69.17L2456,409.45a2,2,0,0,1,.92,1.29A258.08,258.08,0,0,1,2430,589.41a1.89,1.89,0,0,1-.75.76L1978.63,846.56a2,2,0,0,1-1.47.2,425.23,425.23,0,0,1-105.35-42.39,2,2,0,0,1,0-3.45l363.26-211.45a2,2,0,0,0-1.58-3.63L1772.92,725.55a2,2,0,0,1-2-.53,428.38,428.38,0,0,1-73.54-106.83,2,2,0,0,1,.4-2.29l141.71-137.84a2,2,0,0,0-1.88-3.38l-172.12,42.76a2,2,0,0,1-2.43-1.53c-2.1-10.53-4-21.89-5.37-34-1.05-9-1.76-17.59-2.21-25.78A2,2,0,0,1,1656.45,454.28Z" style="fill:#e87108"/><path d="M1686.45,486.31a403.48,403.48,0,0,1-3.67-54.41c0-220.92,179.08-400,400-400s400,179.08,400,400-179.09,400-400,400a399.88,399.88,0,0,1-112.9-16.16" style="fill:none;stroke:#e87108;stroke-miterlimit:10;stroke-width:56px"/><path d="M2700.5,557.41a96,96,0,0,0,14-2.27v38.13q-15.08,3.51-39.18,3.51-29.64,0-50.23-15.32t-20.59-64.54v-118h-42v-37h42v-74h44v74h58v37h-58V507.76q0,30.75,9,40.57t28,9.83Q2692.49,558.16,2700.5,557.41Z" style="fill:#fff"/><path d="M2932.55,379.58q22,24.19,21.95,71.1V593.9h-44v-124q0-39.32-13.86-58T2852,393.31q-31.76,0-48.64,20.91t-16.89,56.7v123h-44v-353h44V404.29A76.4,76.4,0,0,1,2817,368.48q20.94-13.11,50.71-13.11Q2910.6,355.37,2932.55,379.58Z" style="fill:#fff"/><path d="M3198,490.9h-181q.49,33.45,20.27,52.46t53.23,19q23.3,0,39-8.87a51.87,51.87,0,0,0,22.81-25.59h44.1q-6.09,32.45-35.48,52.71t-70.45,20.27q-53.74,0-85.41-33.19t-31.68-90q0-36.5,14.19-64.37t40.3-43.08q26.1-15.21,60.57-15.21,32.43,0,57.52,13.94a98.62,98.62,0,0,1,39,39q13.93,25.08,13.94,57Q3199,480.25,3198,490.9Zm-42.46-34q0-30.73-17.9-48.39T3088,390.87q-31.26,0-50.15,18.15t-20.41,47.88Z" style="fill:#fff"/><path d="M3273,584.08a100.81,100.81,0,0,1-39.25-43.53q-13.26-27.67-13.25-62.4,0-34.22,14-62.15a107.19,107.19,0,0,1,40-44q26-16.09,61-16.1,27,0,48.5,12.83a83.86,83.86,0,0,1,32.5,34.47V361.9h43v232h-43V553.13q-11,21.15-33.5,34a96.24,96.24,0,0,1-48.5,12.84Q3299,599.94,3273,584.08ZM3397.74,537q20.91-23.69,20.92-59t-20.92-59.22q-20.92-23.94-57.71-23.94-35.28,0-56.45,23.43T3262.42,478q0,36.28,21.16,59.47T3340,560.63Q3376.83,560.63,3397.74,537Z" style="fill:#fff"/><path d="M3622.29,557.41a98.77,98.77,0,0,0,14.21-2.27V593.6q-15.21,3.54-39.54,3.55-29.91,0-50.68-15.46t-20.78-65.13V398.9h-42v-37h42v-74h44v74h58v37h-58V507.76q0,30.75,9.14,40.57t28.42,9.83Q3614.16,558.16,3622.29,557.41Z" style="fill:#fff"/><path d="M3872.87,490.9H3691.93q.5,33.45,20.27,52.46t53.22,19q23.31,0,39-8.87a51.87,51.87,0,0,0,22.81-25.59h44.09q-6.07,32.45-35.48,52.71t-70.45,20.27q-53.73,0-85.4-33.19t-31.68-90q0-36.5,14.19-64.37t40.3-43.08q26.1-15.21,60.57-15.21,32.43,0,57.52,13.94a98.62,98.62,0,0,1,39,39q13.93,25.08,13.94,57Q3873.89,480.25,3872.87,490.9Zm-42.46-34q0-30.73-17.89-48.39t-49.64-17.64q-31.26,0-50.15,18.15t-20.41,47.88Z" style="fill:#fff"/><path d="M3903.5,593.9v-232h44v52.92q6.52-27.72,25.39-42.09a68.36,68.36,0,0,1,42.49-14.36q13.57,0,21.12,2v40.32q-7.55-1.51-21.62-1.52-32.7,0-50,26.21t-17.35,67.54v101Z" style="fill:#fff"/><path d="M41.5,593.9v-232h44v42.27a71.94,71.94,0,0,1,25.17-34.47q18.12-13.84,44.29-13.84,29.7,0,48.57,13.08T229,405.68Q237,384,257.39,370T304,355.86q44.28,0,63.92,24.66T387.5,447v147h-44V455.3q0-62-50.23-62-26.64,0-41.7,19.4T236.5,472.94v121h-44V458.83q0-65.52-49.73-65.52-27.63,0-42.45,19.9T85.5,472.94v121Z" style="fill:#fff"/><path d="M470.72,583.82a108.46,108.46,0,0,1-42.08-44.1Q414,511.75,414,478q0-34.28,14.62-62.25a108.58,108.58,0,0,1,42.08-44.1q27.46-16.12,64.26-16.12t64.26,16.12a108.67,108.67,0,0,1,42.09,44.1q14.61,28,14.61,62.25,0,33.76-14.86,61.74A110.73,110.73,0,0,1,599,583.82Q571.78,599.95,535,600T470.72,583.82ZM591.43,537.2Q612.1,513.76,612.1,478q0-36.28-20.67-59.73T535,394.82q-35.79,0-56.7,23.43T457.37,478q0,35.79,20.91,59.22T535,560.63Q570.77,560.63,591.43,537.2Z" style="fill:#fff"/><path d="M682.5,593.9v-232h44v42.77a76.23,76.23,0,0,1,30.43-35.73q20.87-13.08,50.56-13.08,42.24,0,64.13,24.15t21.88,71V593.9h-44v-124q0-39.32-13.75-58T791.5,393.31q-31.5,0-48.25,20.91t-16.75,56.7v123Z" style="fill:#fff"/><path d="M966.05,590.81q-22-9.84-34.35-27.27a65.23,65.23,0,0,1-12.37-38.64h43.44q0,17.69,15.15,29t40.41,11.36q19.7,0,31.31-9.09T1061.26,532q0-12.62-7.58-20.46t-27.27-12.88l-47.48-12.12q-25.77-7.06-39.15-23.49T926.4,422.36q0-29.28,24.49-48t62.39-18.69q41.4,0,65.41,18.69t24,51.52h-42.93q0-16.66-12.63-26.52t-35.36-9.85q-18.69,0-30.31,8.33t-11.61,22.48a26.36,26.36,0,0,0,7.83,19.45q7.82,7.83,26,12.88l48,13.13q25.77,7.08,39.91,23.74t14.14,40.91q0,32.85-24.25,51.52t-65.66,18.69Q988,600.66,966.05,590.81Z" style="fill:#fff"/><path d="M1153.39,575.53q-23.9-24.4-23.89-70.71V361.9h44V495q0,67.55,56.23,67.54,33.13,0,49.45-21.17t16.32-52.41v-127h44v232h-44V551.62a77.45,77.45,0,0,1-29.93,35.23q-20.37,13.08-48,13.09Q1177.29,599.94,1153.39,575.53Z" style="fill:#fff"/><path d="M1383.5,593.9v-232h44v42.77a76.23,76.23,0,0,1,30.43-35.73q20.86-13.08,50.55-13.08,42.26,0,64.14,24.15t21.88,71V593.9h-43v-124q0-39.32-13.86-58T1493,393.31q-31.76,0-48.64,20.91t-16.89,56.7v123Z" style="fill:#fff"/></svg>