<svg xmlns="http://www.w3.org/2000/svg" viewBox="0 0 4040 864"><path d="M1656.45,454.28l439.36-250.83a2,2,0,0,1,1.94,0l176.7,97.19a2,2,0,0,1,.45,3.15L2085,493.71A2,2,0,0,0,2087,497l323.86-113.79a2,2,0,0,1,1.69.17L2456,409.45a2,2,0,0,1,.92,1.29A258.08,258.08,0,0,1,2430,589.41a1.89,1.89,0,0,1-.75.76L1978.63,846.56a2,2,0,0,1-1.47.2,425.23,425.23,0,0,1-105.35-42.39,2,2,0,0,1,0-3.45l363.26-211.45a2,2,0,0,0-1.58-3.63L1772.92,725.55a2,2,0,0,1-2-.53,428.38,428.38,0,0,1-73.54-106.83,2,2,0,0,1,.4-2.29l141.71-137.84a2,2,0,0,0-1.88-3.38l-172.12,42.76a2,2,0,0,1-2.43-1.53c-2.1-10.53-4-21.89-5.37-34-1.05-9-1.76-17.59-2.21-25.78A2,2,0,0,1,1656.45,454.28Z" style="fill:#e87108"/><path d="M1686.45,486.31a403.48,403.48,0,0,1-3.67-54.41c0-220.92,179.08-400,400-400s400,179.08,400,400-179.09,400-400,400a399.88,399.88,0,0,1-112.9-16.16" style="fill:none;stroke:#e87108;stroke-miterlimit:10;stroke-width:56px"/><path d="M2715.08,554.58v38.81c-8.57,2-24.19,3.53-39.31,3.53-27.22,0-71.07-5-71.07-80.13V398.35h-41.83v-36.8h41.83V288h43.85v73.58H2707v36.8h-58.46V507.21c0,44.35,15.12,50.4,37.3,50.4C2694.41,557.61,2708.53,556.1,2715.08,554.58Z" style="fill:#1a1a1a"/><path d="M2954,450.76V593.9h-43.85v-124c0-51.91-16.63-76.6-58.46-76.6-43.35,0-65.52,30.74-65.52,77.61v123h-43.85V241.1h43.85V404.39c12.6-29.73,40.82-48.88,81.14-48.88C2924.74,355.51,2954,388.77,2954,450.76Z" style="fill:#1a1a1a"/><path d="M3197.4,490.58H3017.47c1,44.85,28.73,71.06,73.08,71.06,30.74,0,51.91-12.09,61.49-34.27h43.84C3187.82,570.21,3145,600,3090.55,600c-71.57,0-116.42-47.38-116.42-122.48,0-73.58,45.36-122,114.4-122,65.52,0,109.88,45.36,109.88,109.36A236.62,236.62,0,0,1,3197.4,490.58Zm-41.83-33.77c0-40.82-25.2-66-67.54-66s-68.54,26.71-70.56,66Z" style="fill:#1a1a1a"/><path d="M3219.07,478c0-68.55,43.85-122.47,115.92-122.47,36.79,0,67,18.64,81.65,47.37V361.55H3460V593.9h-43.34V553.07C3402,581.8,3368.76,600,3334,600,3259.9,600,3219.07,546.52,3219.07,478Zm199.59,0c0-44.86-27.72-83.16-78.63-83.16-47.88,0-77.61,35.28-77.61,83.16,0,47.37,29.73,82.65,77.61,82.65C3390.94,560.63,3418.66,522.83,3418.66,478Z" style="fill:#1a1a1a"/><path d="M3635.87,554.58v38.81c-8.56,2-24.19,3.53-39.31,3.53-27.21,0-71.06-5-71.06-80.13V398.35h-41.83v-36.8h41.83V288h43.85v73.58h58.46v36.8h-58.46V507.21c0,44.35,15.12,50.4,37.29,50.4C3615.21,557.61,3629.32,556.1,3635.87,554.58Z" style="fill:#1a1a1a"/><path d="M3872.25,490.58H3692.32c1,44.85,28.73,71.06,73.08,71.06,30.74,0,51.91-12.09,61.49-34.27h43.84c-8.06,42.84-50.9,72.58-105.33,72.58C3693.83,600,3649,552.57,3649,477.47c0-73.58,45.36-122,114.41-122,65.52,0,109.87,45.36,109.87,109.36A239,239,0,0,1,3872.25,490.58Zm-41.84-33.77c0-40.82-25.2-66-67.53-66s-68.55,26.71-70.56,66Z" style="fill:#1a1a1a"/><path d="M3904,361.55h43.84v52.92c9.08-39.31,38.81-56.44,68-56.44,8.07,0,15.63.5,21.17,2v40.32c-7.56-1.51-13.61-1.51-21.67-1.51-45.86,0-67.54,41.83-67.54,93.74V593.9H3904Z" style="fill:#1a1a1a"/><path d="M41.58,361.55H85.42v42.34c8.57-25.2,32.26-48.38,69.55-48.38,40.83,0,65.52,19.15,74.09,49.89,10.08-27.72,38.81-49.89,75.1-49.89,62.49,0,83.66,40.32,83.66,91.22V593.9H344V455.3c0-43.85-19.15-62-50.4-62-34.27,0-56.95,23.18-56.95,79.63v121H192.77V458.83c0-50.4-21.67-65.52-49.89-65.52-35.79,0-57.46,25.2-57.46,79.63v121H41.58Z" style="fill:#1a1a1a"/><path d="M414,478c0-68,45.36-122.47,121-122.47,75.1,0,121,54.43,121,122.47,0,67.53-45.86,122-121,122C459.38,600,414,545.51,414,478Zm198.08,0c0-46.87-28.23-83.16-77.12-83.16S457.37,431.11,457.37,478c0,46.37,28.73,82.65,77.61,82.65S612.1,524.35,612.1,478Z" style="fill:#1a1a1a"/><path d="M682.15,361.55H726v42.84c12.6-29.73,40.82-48.88,81.14-48.88,57,0,86.18,33.26,86.18,95.25V593.9H850v-124c0-51.91-17.14-76.6-58.46-76.6-43.35,0-65.52,30.74-65.52,77.61v123H682.15Z" style="fill:#1a1a1a"/><path d="M919.53,524.35h43.34c0,22.68,21.17,40.31,55.44,40.31,25.71,0,42.84-12.59,42.84-33.26,0-15.62-7.05-26.21-34.77-33.26L979,486c-34.27-9.57-52.41-31.75-52.41-64,0-39.31,36.28-66.52,86.68-66.52,55.44,0,89.21,26.71,89.21,70.05h-42.84c0-22.17-17.64-36.29-47.88-36.29-24.19,0-41.83,11.6-41.83,30.75,0,14.61,8.57,25.2,33.77,32.25l47.88,13.11c34.27,9.57,53.92,32.25,53.92,64.51,0,44.35-34.77,70.06-89.71,70.06C958.84,600,919.53,567.19,919.53,524.35Z" style="fill:#1a1a1a"/><path d="M1129.69,504.69V361.55h43.85V494.61c0,40.82,15.12,67.54,56.45,67.54,47.88,0,66-36.29,66-73.59v-127h43.85V593.9H1296V551.56c-12.6,28.73-39.81,48.39-78.12,48.39C1166,600,1129.69,568.7,1129.69,504.69Z" style="fill:#1a1a1a"/><path d="M1383.2,361.55h43.85v42.84c12.6-29.73,40.83-48.88,81.14-48.88,57,0,86.19,33.26,86.19,95.25V593.9H1551v-124c0-51.91-17.13-76.6-58.46-76.6-43.34,0-65.52,30.74-65.52,77.61v123H1383.2Z" style="fill:#1a1a1a"/></svg>