<?xml version="1.0" standalone="no"?>
<!DOCTYPE svg PUBLIC "-//W3C//DTD SVG 20010904//EN"
 "http://www.w3.org/TR/2001/REC-SVG-20010904/DTD/svg10.dtd">
<svg version="1.0" xmlns="http://www.w3.org/2000/svg"
 width="700.000000pt" height="700.000000pt" viewBox="0 0 700.000000 700.000000"
 preserveAspectRatio="xMidYMid meet">
<metadata>
Created by potrace 1.11, written by Peter Selinger 2001-2013
</metadata>
<g transform="translate(0.000000,700.000000) scale(0.100000,-0.100000)"
fill="#000000" stroke="none">
<path d="M3339 6966 c-2 -2 -52 -6 -111 -10 -59 -3 -113 -8 -120 -11 -7 -2
-35 -6 -63 -9 -27 -2 -63 -7 -80 -10 -16 -3 -43 -8 -60 -10 -61 -8 -193 -39
-315 -72 -452 -122 -880 -341 -1255 -641 -100 -80 -358 -328 -447 -429 -201
-229 -421 -575 -543 -852 -26 -59 -53 -121 -61 -138 -30 -68 -115 -336 -143
-454 -29 -121 -56 -264 -67 -352 -2 -24 -7 -52 -9 -63 -32 -153 -25 -714 11
-920 3 -16 11 -63 18 -103 7 -40 16 -75 20 -79 6 -6 86 13 929 223 252 63 467
114 477 114 11 0 20 -4 20 -9 0 -9 -100 -109 -345 -346 -193 -187 -670 -651
-737 -718 l-79 -78 47 -87 c139 -260 292 -486 453 -671 31 -35 68 -77 82 -93
l27 -30 48 15 c87 28 274 85 514 157 614 186 1388 420 1565 475 61 19 180 55
265 80 85 26 182 55 215 65 33 10 112 34 175 53 63 19 189 58 280 85 396 121
670 202 685 202 36 0 3 -28 -106 -91 -63 -36 -186 -108 -274 -159 -88 -51
-185 -108 -215 -125 -30 -18 -165 -96 -300 -175 -135 -78 -258 -150 -275 -160
-16 -9 -138 -80 -270 -157 -724 -423 -854 -498 -890 -519 -22 -12 -130 -75
-240 -139 -110 -65 -216 -126 -235 -137 -87 -49 -140 -83 -140 -89 0 -12 25
-27 167 -98 155 -78 354 -158 531 -215 143 -45 425 -106 562 -122 25 -3 52 -7
60 -9 85 -23 665 -24 786 -1 10 2 42 7 69 10 137 18 323 56 490 101 75 20 234
73 257 85 10 6 23 10 28 10 6 0 30 9 52 20 23 11 46 20 51 20 4 0 74 31 153
70 313 150 597 340 837 560 163 149 325 327 452 495 72 96 195 280 195 292 0
3 6 14 14 22 42 47 209 402 274 581 69 191 143 474 158 600 3 24 7 47 9 50 2
3 6 34 10 69 4 34 8 72 11 84 8 40 18 261 18 392 -1 114 -8 255 -19 365 -5 54
-25 194 -32 225 -2 11 -6 34 -9 50 -12 74 -76 320 -109 420 -113 339 -274 660
-472 936 -403 564 -985 1009 -1627 1245 -145 53 -414 129 -527 148 -19 3 -45
8 -59 10 -202 35 -331 47 -566 52 -116 2 -213 2 -215 0z m409 -460 c52 -4 98
-8 101 -10 3 -2 40 -7 81 -11 41 -4 77 -9 80 -10 3 -2 26 -6 50 -10 122 -18
400 -99 575 -168 130 -50 391 -187 519 -272 236 -155 502 -390 657 -581 35
-44 66 -81 69 -84 10 -9 107 -144 157 -220 93 -140 200 -347 267 -515 16 -38
32 -79 37 -90 13 -32 76 -235 84 -272 2 -10 11 -49 20 -88 9 -38 19 -81 21
-95 3 -14 9 -51 15 -83 6 -33 12 -73 14 -90 5 -50 16 -149 19 -179 2 -16 0
-28 -3 -28 -4 0 -78 43 -166 97 -88 53 -167 96 -175 95 -14 0 -112 -34 -575
-197 -99 -35 -286 -100 -415 -145 -129 -45 -251 -88 -270 -95 -19 -8 -81 -30
-137 -49 -108 -38 -179 -63 -483 -169 -221 -78 -730 -256 -747 -262 -7 -2 -15
1 -19 7 -4 6 333 350 772 789 493 493 775 782 769 788 -6 5 -31 21 -57 35 -27
14 -69 38 -95 52 -27 15 -181 100 -343 189 -162 89 -439 241 -616 338 -177 98
-326 177 -333 177 -6 0 -125 -65 -264 -144 -138 -79 -268 -153 -287 -163 -19
-11 -303 -173 -630 -360 -1065 -609 -1512 -864 -1700 -971 -102 -58 -194 -111
-205 -118 -33 -23 -43 -17 -40 24 2 20 6 80 10 132 3 52 8 104 10 115 3 11 7
37 10 58 3 20 7 54 10 75 23 156 89 402 156 576 58 151 164 368 229 471 11 17
28 46 39 65 10 19 52 80 91 135 428 592 1008 991 1705 1175 176 46 370 76 555
87 58 3 106 6 107 7 5 3 246 -3 331 -8z m2404 -4448 c-333 -625 -903 -1119
-1592 -1381 -172 -66 -483 -145 -635 -161 -27 -3 -72 -8 -100 -12 -27 -3 -68
-7 -90 -9 -34 -4 -386 -6 -430 -3 -18 2 -9 18 11 18 8 0 14 5 14 10 0 6 4 10
9 10 5 0 116 61 247 136 132 75 259 148 284 162 25 14 140 79 255 145 116 66
224 127 240 136 44 24 248 141 265 152 18 11 401 228 480 271 30 17 67 39 82
49 14 11 29 19 33 19 4 0 34 16 68 36 34 20 82 48 107 62 25 14 83 47 129 74
46 26 85 48 85 48 1 0 130 74 287 164 156 90 288 165 292 165 5 1 -13 -41 -41
-91z"/>
</g>
</svg>
